<svg xmlns="http://www.w3.org/2000/svg" viewBox="0 0 1200 750" width="100%" height="100%" preserveAspectRatio="xMidYMid slice" aria-hidden="true"><defs><pattern id="d24d3z9" width="38" height="38" patternUnits="userSpaceOnUse"><circle cx="5" cy="5" r="4" fill="#FFF3DC" opacity=".55"/></pattern><filter id="f24d3z9" x="-12%" y="-12%" width="124%" height="124%"><feTurbulence type="fractalNoise" baseFrequency="0.018" numOctaves="2" seed="80" result="n"/><feDisplacementMap in="SourceGraphic" in2="n" scale="7" result="w"/><feDropShadow in="w" dx="14" dy="14" stdDeviation="0" flood-color="#1B1A17"/></filter></defs><rect width="1200" height="750" fill="#E4572E"/><path d="M1154.7 389.2C1167.4 470.1 1090 621.9 1020.9 670.3C951.7 718.6 834.3 678.5 739.8 679.3C645.3 680.1 504 723.5 453.8 675.2C403.5 626.8 434.1 480.3 438.3 389.2C442.5 298 428.6 176 478.9 128.3C529.1 80.6 662.2 93.6 739.8 102.9C817.4 112.3 875.4 136.7 944.6 184.4C1013.7 232.1 1142 308.2 1154.7 389.2Z" fill="#F3A712" stroke="#1B1A17" stroke-width="9" stroke-linejoin="round"/><rect x="50" y="50" width="390" height="230" fill="url(#d24d3z9)"/><path d="M60 511.7q26 -20 52 0q26 20 52 0q26 -20 52 0q26 20 52 0q26 -20 52 0q26 20 52 0q26 -20 52 0q26 20 52 0q26 -20 52 0q26 20 52 0" fill="none" stroke="#1B1A17" stroke-width="9" stroke-linecap="round" opacity=".85"/><g transform="translate(192.1 630.2) rotate(318)"><circle r="12" fill="#1B1A17"/></g><g transform="translate(392.6 438.9) rotate(232)"><path d="M-6.656505799852312 0H6.656505799852312M0 -6.656505799852312V6.656505799852312" stroke="#FFF3DC" stroke-width="6" stroke-linecap="round"/></g><g transform="translate(357.9 309.3) rotate(260)"><path d="M0 -20.872269354760647Q0 0 20.872269354760647 0Q0 0 0 20.872269354760647Q0 0 -20.872269354760647 0Q0 0 0 -20.872269354760647Z" fill="#FFF3DC"/></g><g transform="translate(99 533.2) rotate(348)"><circle r="11.9" fill="none" stroke="#FFF3DC" stroke-width="5"/></g><g transform="translate(356 269.3) rotate(354)"><path d="M-15.696753846947104 0H15.696753846947104M0 -15.696753846947104V15.696753846947104" stroke="#1B1A17" stroke-width="6" stroke-linecap="round"/></g><g transform="translate(519.8 170.6) rotate(73)"><circle r="13.4" fill="#2D4E9B"/></g><g transform="translate(118 357.9) rotate(151)"><path d="M0 -17.74993148446083Q0 0 17.74993148446083 0Q0 0 0 17.74993148446083Q0 0 -17.74993148446083 0Q0 0 0 -17.74993148446083Z" fill="#2D4E9B"/></g><g transform="translate(602.7 87.1) rotate(228)"><circle r="8.5" fill="#FFF3DC"/></g><g transform="translate(366.6 368.4) rotate(8)"><path d="M0 -14.989809388294816L14.989809388294816 14.989809388294816H-14.989809388294816Z" fill="#2D4E9B"/></g><g transform="translate(312.3 357.1) rotate(161)"><path d="M-8.685142504051328 0H8.685142504051328M0 -8.685142504051328V8.685142504051328" stroke="#F3A712" stroke-width="6" stroke-linecap="round"/></g><g transform="translate(298.6 575.9) rotate(231)"><circle r="8.6" fill="#FFF3DC"/></g><g filter="url(#f24d3z9)"><g transform="translate(740 390) rotate(-5)"><path d="M-110 -150H110V-40C110 40 50 92 0 92C-50 92-110 40-110 -40Z" fill="#FFF3DC" stroke="#1B1A17" stroke-width="12" stroke-linecap="round" stroke-linejoin="round"/><path d="M-110 -118H-172C-172 -48-140 -14-100 -14M110 -118H172C172 -48 140 -14 100 -14" fill="none" stroke="#1B1A17" stroke-width="12" stroke-linecap="round" stroke-linejoin="round"/><path d="M0 -112L17 -72L60 -68L27 -40L37 4L0 -19L-37 4L-27 -40L-60 -68L-17 -72Z" fill="#2D4E9B" stroke="#1B1A17" stroke-width="8" stroke-linecap="round" stroke-linejoin="round"/><rect x="-30" y="92" width="60" height="62" fill="#FFF3DC" stroke="#1B1A17" stroke-width="12" stroke-linecap="round" stroke-linejoin="round"/><rect x="-95" y="154" width="190" height="42" rx="10" fill="#F3A712" stroke="#1B1A17" stroke-width="12" stroke-linecap="round" stroke-linejoin="round"/></g></g></svg>
